<svg id="Capa_1" enable-background="new 0 0 512 512" height="512" viewBox="0 0 512 512" width="512" xmlns="http://www.w3.org/2000/svg"><g><path d="m512 77.5v434.5h-512v-383.67l20-71.33h472z" fill="#f0f9ff"/><path d="m512 77.5v434.5h-256v-455h236z" fill="#bce4f4"/><path d="m336.05 347.44-17.23 24.56-62.82-44.06-59.93-42.04 17.23-24.56 42.7 29.95z" fill="#393d9d"/><path d="m336.05 347.44-17.23 24.56-62.82-44.06v-36.65z" fill="#350d65"/><path d="m512 0v77.5h-218l-38 50.83h-256v-128.33z" fill="#393d9d"/><path d="m48.75 47.5h30v30h-30z" fill="#fe4945"/><path d="m110.292 47.5h30v30h-30z" fill="#f0f9ff"/><path d="m171.833 47.5h30v30h-30z" fill="#f0f9ff"/><path d="m512 0v77.5h-218l-38 50.83v-128.33z" fill="#350d65"/><path d="m86.279 304.978h136.552v30h-136.552z" fill="#393d9d" transform="matrix(.734 -.679 .679 .734 -176.165 189.989)"/><path d="m295.133 283.672h147.674v30h-147.674z" fill="#350d65" transform="matrix(.563 -.827 .827 .563 -85.517 435.731)"/><g><circle cx="104.742" cy="366.333" fill="#fe4945" r="51"/><circle cx="204.998" cy="273.623" fill="#fe4945" r="51"/><g fill="#fa185e"><circle cx="327.753" cy="359.721" r="51"/><circle cx="410.818" cy="237.623" r="51"/></g></g></g></svg>